<svg fill="#000000" xmlns="http://www.w3.org/2000/svg"  viewBox="0 0 64 64" width="64px" height="64px"><path d="M9 29H7c-.551 0-1 .449-1 1s.449 1 1 1h2c.551 0 1-.449 1-1S9.551 29 9 29zM9 34H7c-.551 0-1 .449-1 1s.449 1 1 1h2c.551 0 1-.449 1-1S9.551 34 9 34zM9 39H7c-.551 0-1 .449-1 1s.449 1 1 1h2c.551 0 1-.449 1-1S9.551 39 9 39zM9 44H7c-.551 0-1 .449-1 1s.449 1 1 1h2c.551 0 1-.449 1-1S9.551 44 9 44zM9 49H7c-.551 0-1 .449-1 1s.449 1 1 1h2c.551 0 1-.449 1-1S9.551 49 9 49zM9 54H7c-.551 0-1 .449-1 1s.449 1 1 1h2c.551 0 1-.449 1-1S9.551 54 9 54z"/><path fill="none" stroke="#000000" stroke-linejoin="round" stroke-miterlimit="10" stroke-width="2" d="M55,51c2.134-0.005,4.039-1.367,4.729-3.375C60.43,45.585,59.731,43.305,58,42c2.33-0.524,4-2.611,4-5s-1.67-4.476-4-5c0.335-0.329,2.493-2.546,2-5c-0.45-2.239-2.524-3.95-5-4l-14.651,0c0.524-2.627,2.048-11.692-2.727-17.083C36.618,4.782,35.313,3,32.956,3C30.466,3,30.012,5.015,30,6.062v9C30,18,27.656,24.281,25,27c-0.731,0.748-2.721,1.885-6,2v25c0.672,0.829,1.545,1.752,2.715,2.546C25.359,59.019,30.016,59,32,59h15c5.583,0,8.388-1.788,8.917-4.417C56.004,54.15,56.187,52.811,55,51z"/><path fill="none" stroke="#000000" stroke-miterlimit="10" stroke-width="2" d="M5,59h12c1.105,0,2-0.895,2-2V28c0-1.105-0.895-2-2-2H5c-1.105,0-2,0.895-2,2v29C3,58.104,3.895,59,5,59z"/></svg>